<?xml version="1.0" encoding="UTF-8" standalone="no"?>
<svg
   xmlns:dc="http://purl.org/dc/elements/1.1/"
   xmlns:cc="http://creativecommons.org/ns#"
   xmlns:rdf="http://www.w3.org/1999/02/22-rdf-syntax-ns#"
   xmlns:svg="http://www.w3.org/2000/svg"
   xmlns="http://www.w3.org/2000/svg"
   viewBox="0 0 28.5252 7.3523598"
   height="7.3523598"
   width="28.5252"
   xml:space="preserve"
   id="svg2"
   version="1.1"><metadata
     id="metadata8"><rdf:RDF><cc:Work
         rdf:about=""><dc:format>image/svg+xml</dc:format><dc:type
           rdf:resource="http://purl.org/dc/dcmitype/StillImage" /></cc:Work></rdf:RDF></metadata><defs
     id="defs6" /><g
     transform="matrix(1.3333333,0,0,-1.3333333,0,7.35236)"
     id="g10"><g
       transform="translate(18.0486,5.5143)"
       id="g12"><path
         id="path14"
         style="fill:#000000;fill-opacity:1;fill-rule:nonzero;stroke:none"
         d="M 0,0 -0.782,-0.842 -1.513,0 H -8.71 L -9.329,-1.423 -9.963,0 h -5.671 l -2.415,-5.514 h 2.891 l 0.357,0.88 h 0.82 l 0.357,-0.88 h 12.013 l 0.805,0.856 0.752,-0.856 H 3.345 L 0.923,-2.772 3.345,0 Z m -12.859,-0.625 h 0.011 V -0.649 Z M 0.41,-0.782 h 1.161 l -1.766,-1.99 1.767,-1.966 H 0.358 l -1.162,1.311 -1.207,-1.311 h -3.741 v 3.956 h 3.8 l 1.162,-1.297 z m -8.555,0 h 1.535 v -3.956 h -0.932 l -0.007,3.098 -1.365,-3.098 h -0.834 l -1.371,3.098 v -3.098 h -1.922 l -0.365,0.886 h -1.967 l -0.365,-0.886 h -1.028 l 1.691,3.956 h 1.408 l 1.602,-3.741 v 3.741 h 1.543 l 1.237,-2.683 z m -6.894,-2.251 h 1.297 l -0.648,1.58 z M -4.816,-1.6 v -0.724 h 2.072 v -0.804 h -2.072 v -0.791 h 2.326 l 1.081,1.161 -1.035,1.156 V -1.6 Z" /></g></g></svg>