<?xml version="1.0" encoding="UTF-8" standalone="no"?>
<svg
   xmlns:dc="http://purl.org/dc/elements/1.1/"
   xmlns:cc="http://creativecommons.org/ns#"
   xmlns:rdf="http://www.w3.org/1999/02/22-rdf-syntax-ns#"
   xmlns:svg="http://www.w3.org/2000/svg"
   xmlns="http://www.w3.org/2000/svg"
   viewBox="0 0 189.01868 193.31866"
   height="193.31866"
   width="189.01868"
   xml:space="preserve"
   id="svg2"
   version="1.1"><metadata
     id="metadata8"><rdf:RDF><cc:Work
         rdf:about=""><dc:format>image/svg+xml</dc:format><dc:type
           rdf:resource="http://purl.org/dc/dcmitype/StillImage" /></cc:Work></rdf:RDF></metadata><defs
     id="defs6"><clipPath
       id="clipPath18"
       clipPathUnits="userSpaceOnUse"><path
         id="path16"
         d="M 0,144.989 H 141.764 V 0 H 0 Z" /></clipPath></defs><g
     transform="matrix(1.3333333,0,0,-1.3333333,0,193.31867)"
     id="g10"><g
       id="g12"><g
         clip-path="url(#clipPath18)"
         id="g14"><g
           transform="translate(12.0762,111.8191)"
           id="g20"><path
             id="path22"
             style="fill:#000000;fill-opacity:1;fill-rule:nonzero;stroke:none"
             d="m 0,0 c 11.139,-4.723 27.661,-6.264 39.281,-6.264 11.62,0 28.144,1.541 39.282,6.264 v -13.062 c -1.962,-2.544 -15.236,-8.101 -39.282,-8.101 -24.045,0 -37.318,5.557 -39.281,8.101 z m 39.281,21.093 c 22.685,0 35.782,-4.945 38.84,-7.64 -3.058,-2.696 -16.154,-7.641 -38.84,-7.641 -22.683,0 -35.78,4.945 -38.839,7.641 3.058,2.695 16.155,7.64 38.839,7.64 m 6.943,-96.041 c -2.206,-0.105 -4.517,-0.164 -6.943,-0.164 -24.034,0 -37.308,5.553 -39.281,8.098 v 13.066 c 11.139,-4.724 27.661,-6.265 39.281,-6.265 2.838,0 5.971,0.094 9.242,0.301 1.51,4.579 3.716,8.838 6.499,12.653 -4.594,-0.542 -9.841,-0.878 -15.741,-0.878 -24.046,0 -37.319,5.557 -39.281,8.1 v 13.063 c 11.139,-4.724 27.661,-6.265 39.281,-6.265 11.621,0 28.144,1.541 39.282,6.265 v -3.418 c 3.834,1.187 7.885,1.875 12.077,2.014 v 41.83 c 0,15.565 -32.283,19.717 -51.359,19.717 -19.075,0 -51.357,-4.152 -51.357,-19.717 v -80.923 c 0,-15.564 32.282,-19.717 51.357,-19.717 2.679,0 5.617,0.082 8.691,0.266 -1.085,3.813 -1.692,7.826 -1.748,11.974" /></g><g
           transform="translate(107.127,17.8127)"
           id="g24"><path
             id="path26"
             style="fill:#000000;fill-opacity:1;fill-rule:nonzero;stroke:none"
             d="m 0,0 v -2.688 c 0,-1.613 -1.309,-2.92 -2.922,-2.92 -1.613,0 -2.921,1.307 -2.921,2.92 v 2.723 c -3.764,0.943 -6.857,3.619 -8.331,7.209 -0.668,1.469 -0.018,3.201 1.45,3.868 1.469,0.668 3.201,0.019 3.869,-1.449 0.024,-0.054 0.046,-0.109 0.068,-0.163 0.996,-2.384 3.329,-3.933 5.912,-3.927 3.085,0 6.403,1.764 6.403,5.62 0,1.017 0,4.09 -7.01,5.703 h -0.106 c -9.989,2.336 -11.485,8.108 -11.485,11.368 0.006,5.489 3.943,10.185 9.347,11.147 v 2.652 c 0,1.613 1.308,2.921 2.921,2.921 1.614,0 2.921,-1.308 2.921,-2.921 V 39.34 c 3.771,-0.917 6.88,-3.571 8.378,-7.15 0.626,-1.487 -0.072,-3.201 -1.56,-3.827 -1.488,-0.626 -3.201,0.073 -3.827,1.56 -0.996,2.383 -3.329,3.932 -5.912,3.926 -3.085,0 -6.403,-1.765 -6.403,-5.62 0,-1.017 0,-4.089 7.011,-5.702 h 0.105 C 7.852,20.19 9.347,14.395 9.347,11.147 9.341,5.658 5.403,0.962 0,0 m -2.863,57.188 c -20.711,0 -37.5,-16.789 -37.5,-37.5 0,-20.711 16.789,-37.501 37.5,-37.501 20.711,0 37.501,16.79 37.501,37.501 0,20.711 -16.79,37.5 -37.501,37.5" /></g></g></g></g></svg>