<?xml version="1.0" encoding="UTF-8" standalone="no"?>
<svg
   xmlns:dc="http://purl.org/dc/elements/1.1/"
   xmlns:cc="http://creativecommons.org/ns#"
   xmlns:rdf="http://www.w3.org/1999/02/22-rdf-syntax-ns#"
   xmlns:svg="http://www.w3.org/2000/svg"
   xmlns="http://www.w3.org/2000/svg"
   viewBox="0 0 92.701866 192.05733"
   height="192.05733"
   width="92.701866"
   xml:space="preserve"
   id="svg2"
   version="1.1"><metadata
     id="metadata8"><rdf:RDF><cc:Work
         rdf:about=""><dc:format>image/svg+xml</dc:format><dc:type
           rdf:resource="http://purl.org/dc/dcmitype/StillImage" /></cc:Work></rdf:RDF></metadata><defs
     id="defs6"><clipPath
       id="clipPath18"
       clipPathUnits="userSpaceOnUse"><path
         id="path16"
         d="M 0,144.043 H 69.526 V 0 H 0 Z" /></clipPath></defs><g
     transform="matrix(1.3333333,0,0,-1.3333333,0,192.05733)"
     id="g10"><g
       id="g12"><g
         clip-path="url(#clipPath18)"
         id="g14"><g
           transform="translate(69.5262,47.7034)"
           id="g20"><path
             id="path22"
             style="fill:#000000;fill-opacity:1;fill-rule:nonzero;stroke:none"
             d="m 0,0 c -0.016,-15.627 -11.228,-28.997 -26.613,-31.735 v -7.652 c 0,-4.593 -3.723,-8.316 -8.317,-8.316 -4.592,0 -8.316,3.723 -8.316,8.316 v 7.751 c -10.719,2.684 -19.524,10.303 -23.719,20.526 -1.901,4.18 -0.054,9.111 4.128,11.012 4.181,1.902 9.111,0.054 11.013,-4.127 0.07,-0.153 0.135,-0.308 0.195,-0.465 2.837,-6.786 9.479,-11.196 16.833,-11.178 8.782,0 18.23,5.023 18.23,16.002 0,2.893 0,11.642 -19.96,16.233 h -0.299 c -28.444,6.654 -32.701,23.087 -32.701,32.368 0.015,15.627 11.227,28.997 26.613,31.736 v 7.551 c 0,4.594 3.724,8.317 8.316,8.317 4.593,0 8.317,-3.723 8.317,-8.317 v -7.751 c 10.734,-2.61 19.588,-10.167 23.851,-20.358 1.783,-4.235 -0.206,-9.113 -4.44,-10.895 -4.235,-1.782 -9.112,0.206 -10.895,4.441 -2.837,6.785 -9.478,11.195 -16.833,11.178 -8.782,0 -18.229,-5.024 -18.229,-16.001 0,-2.895 0,-11.644 19.959,-16.235 h 0.3 C -4.258,25.748 0,9.248 0,0" /></g></g></g></g></svg>