<?xml version="1.0" encoding="UTF-8" standalone="no"?>
<svg
   xmlns:dc="http://purl.org/dc/elements/1.1/"
   xmlns:cc="http://creativecommons.org/ns#"
   xmlns:rdf="http://www.w3.org/1999/02/22-rdf-syntax-ns#"
   xmlns:svg="http://www.w3.org/2000/svg"
   xmlns="http://www.w3.org/2000/svg"
   viewBox="0 0 25.557068 19.794399"
   height="19.794399"
   width="25.557068"
   xml:space="preserve"
   id="svg2"
   version="1.1"><metadata
     id="metadata8"><rdf:RDF><cc:Work
         rdf:about=""><dc:format>image/svg+xml</dc:format><dc:type
           rdf:resource="http://purl.org/dc/dcmitype/StillImage" /></cc:Work></rdf:RDF></metadata><defs
     id="defs6"><clipPath
       id="clipPath18"
       clipPathUnits="userSpaceOnUse"><path
         id="path16"
         d="M 0,14.846 H 19.168 V 0 H 0 Z" /></clipPath></defs><g
     transform="matrix(1.3333333,0,0,-1.3333333,0,19.7944)"
     id="g10"><g
       id="g12"><g
         clip-path="url(#clipPath18)"
         id="g14"><g
           transform="translate(4.1367,0.8243)"
           id="g20"><path
             id="path22"
             style="fill:#000000;fill-opacity:1;fill-rule:nonzero;stroke:none"
             d="M 0,0 C 0,0.276 0.18,0.503 0.477,0.503 0.759,0.503 0.95,0.285 0.95,0 0.95,-0.286 0.759,-0.503 0.477,-0.503 0.182,-0.501 0,-0.275 0,0 M 1.273,0 V 0.784 H 0.93 V 0.594 C 0.822,0.734 0.657,0.823 0.434,0.823 -0.006,0.823 -0.351,0.479 -0.351,0 c 0,-0.479 0.345,-0.824 0.785,-0.824 0.223,0 0.388,0.089 0.496,0.23 v -0.191 h 0.343 z m 11.541,0 c 0,0.276 0.18,0.503 0.477,0.503 0.282,0 0.473,-0.218 0.473,-0.503 0,-0.286 -0.191,-0.503 -0.473,-0.503 -0.297,0.002 -0.477,0.228 -0.477,0.503 m 1.27,0 v 1.416 h -0.34 V 0.594 c -0.109,0.14 -0.274,0.229 -0.496,0.229 -0.44,0 -0.786,-0.344 -0.786,-0.823 0,-0.481 0.346,-0.824 0.786,-0.824 0.222,0 0.387,0.089 0.496,0.23 v -0.191 h 0.34 z M 5.511,0.52 c 0.221,0 0.362,-0.138 0.397,-0.381 H 5.094 C 5.131,0.365 5.268,0.52 5.511,0.52 m 0.008,0.305 c -0.46,0 -0.782,-0.336 -0.782,-0.823 0,-0.5 0.336,-0.824 0.806,-0.824 0.235,0 0.453,0.059 0.644,0.22 L 6.02,-0.35 C 5.888,-0.455 5.721,-0.515 5.563,-0.515 c -0.221,0 -0.421,0.103 -0.469,0.385 H 6.261 L 6.269,0.002 C 6.261,0.489 5.958,0.825 5.519,0.825 M 9.642,0 c 0,0.276 0.18,0.503 0.477,0.503 0.282,0 0.473,-0.218 0.473,-0.503 0,-0.286 -0.191,-0.503 -0.473,-0.503 C 9.822,-0.501 9.642,-0.275 9.642,0 m 1.272,0 V 0.784 H 10.572 V 0.594 C 10.464,0.734 10.299,0.823 10.077,0.823 9.636,0.823 9.292,0.479 9.292,0 c 0,-0.481 0.344,-0.824 0.785,-0.824 0.222,0 0.387,0.089 0.495,0.23 v -0.191 h 0.342 z M 7.712,0 c 0,-0.478 0.332,-0.824 0.839,-0.824 0.236,0 0.394,0.052 0.566,0.187 L 8.952,-0.36 c -0.128,-0.093 -0.264,-0.141 -0.41,-0.141 -0.273,0.003 -0.473,0.2 -0.473,0.503 0,0.302 0.2,0.499 0.473,0.503 0.148,0 0.282,-0.051 0.41,-0.142 L 9.117,0.64 C 8.946,0.775 8.789,0.827 8.551,0.827 8.044,0.825 7.712,0.477 7.712,0 m 4.404,0.825 c -0.197,0 -0.324,-0.093 -0.414,-0.229 v 0.19 h -0.338 v -1.569 h 0.342 v 0.881 c 0,0.259 0.111,0.405 0.336,0.405 l 0.213,-0.039 0.106,0.322 z M 2.961,0.66 C 2.796,0.768 2.57,0.825 2.321,0.825 c -0.397,0 -0.653,-0.19 -0.653,-0.503 0,-0.256 0.191,-0.413 0.542,-0.464 l 0.162,-0.022 c 0.187,-0.025 0.276,-0.075 0.276,-0.165 0,-0.122 -0.125,-0.191 -0.358,-0.191 -0.236,0 -0.409,0.076 -0.523,0.166 L 1.603,-0.62 C 1.791,-0.758 2.026,-0.824 2.284,-0.824 2.737,-0.824 3,-0.611 3,-0.312 3,-0.035 2.792,0.109 2.451,0.157 L 2.29,0.18 C 2.141,0.2 2.024,0.229 2.024,0.334 c 0,0.115 0.112,0.184 0.299,0.184 0.2,0 0.393,-0.077 0.49,-0.136 z M 7.367,0.825 C 7.17,0.825 7.042,0.732 6.954,0.596 v 0.19 H 6.616 v -1.569 h 0.341 v 0.881 c 0,0.259 0.111,0.405 0.335,0.405 L 7.506,0.464 7.612,0.786 Z M 4.454,0.786 H 3.895 V 1.264 H 3.55 V 0.786 H 3.23 V 0.475 h 0.32 v -0.716 c 0,-0.366 0.141,-0.581 0.545,-0.581 0.149,0 0.32,0.046 0.427,0.122 L 4.424,-0.407 4.121,-0.496 c -0.17,0 -0.226,0.106 -0.226,0.264 V 0.477 H 4.454 Z M -0.653,-0.785 V 0.2 c 0,0.371 -0.236,0.621 -0.618,0.623 -0.201,0.004 -0.409,-0.058 -0.552,-0.28 -0.107,0.175 -0.28,0.28 -0.519,0.28 -0.167,0 -0.332,-0.05 -0.46,-0.233 v 0.193 h -0.342 v -1.57 h 0.345 v 0.87 c 0,0.273 0.151,0.418 0.384,0.418 0.227,0 0.342,-0.148 0.342,-0.414 v -0.874 h 0.345 v 0.87 c 0,0.273 0.158,0.418 0.384,0.418 0.234,0 0.345,-0.148 0.345,-0.414 v -0.874 h 0.346 z m 3.195,8.89 c 0,2.018 0.915,3.825 2.35,5.031 -0.904,0.561 -1.97,0.885 -3.113,0.885 -3.268,0 -5.916,-2.647 -5.916,-5.916 0,-3.267 2.648,-5.916 5.916,-5.916 1.142,0 2.209,0.326 3.113,0.885 -1.435,1.207 -2.35,3.014 -2.35,5.031 m 12.489,0 c 0,-3.267 -2.648,-5.916 -5.916,-5.916 -3.268,0 -5.916,2.649 -5.916,5.916 0,3.269 2.65,5.916 5.918,5.916 3.268,0 5.914,-2.647 5.914,-5.916" /></g></g></g></g></svg>