<?xml version="1.0" encoding="UTF-8" standalone="no"?>
<svg
   xmlns:dc="http://purl.org/dc/elements/1.1/"
   xmlns:cc="http://creativecommons.org/ns#"
   xmlns:rdf="http://www.w3.org/1999/02/22-rdf-syntax-ns#"
   xmlns:svg="http://www.w3.org/2000/svg"
   xmlns="http://www.w3.org/2000/svg"
   viewBox="0 0 13.5236 16.229067"
   height="16.229067"
   width="13.5236"
   xml:space="preserve"
   id="svg2"
   version="1.1"><metadata
     id="metadata8"><rdf:RDF><cc:Work
         rdf:about=""><dc:format>image/svg+xml</dc:format><dc:type
           rdf:resource="http://purl.org/dc/dcmitype/StillImage" /></cc:Work></rdf:RDF></metadata><defs
     id="defs6"><clipPath
       id="clipPath18"
       clipPathUnits="userSpaceOnUse"><path
         id="path16"
         d="M 0,12.172 H 10.143 V 0 H 0 Z" /></clipPath></defs><g
     transform="matrix(1.3333333,0,0,-1.3333333,0,16.229067)"
     id="g10"><g
       id="g12"><g
         clip-path="url(#clipPath18)"
         id="g14"><g
           transform="translate(2.9338,5.0654)"
           id="g20"><path
             id="path22"
             style="fill:#000000;fill-opacity:1;fill-rule:nonzero;stroke:none"
             d="m 0,0 c 0.06,0.418 0.233,0.596 0.703,0.598 l 1.146,0.001 c 2.32,0 3.65,1.061 4.068,3.241 0.406,2.097 -1.066,3.266 -3.058,3.266 h -3.725 c -0.261,0 -0.485,-0.193 -0.526,-0.456 -1.169,-7.524 -1.506,-9.436 -1.541,-10.02 -0.011,-0.185 0.137,-0.341 0.322,-0.341 h 2.024 z M 7.209,2.156 C 7.209,1.883 7.176,1.606 7.124,1.331 6.694,-0.91 5.224,-1.685 3.346,-1.685 h -0.29 c -0.231,0 -0.425,-0.169 -0.462,-0.4 L 2.187,-4.667 C 2.151,-4.896 1.957,-5.065 1.727,-5.065 H 0.339 c -0.197,0 -0.348,0.176 -0.318,0.371 l 0.703,4.504 c 0.004,0.016 0.016,0.028 0.032,0.028 h 1.093 c 2.655,0 4.315,1.329 4.804,3.839 C 7.064,3.263 7.209,2.725 7.209,2.156" /></g></g></g></g></svg>