<?xml version="1.0" encoding="UTF-8" standalone="no"?>
<svg
   xmlns:dc="http://purl.org/dc/elements/1.1/"
   xmlns:cc="http://creativecommons.org/ns#"
   xmlns:rdf="http://www.w3.org/1999/02/22-rdf-syntax-ns#"
   xmlns:svg="http://www.w3.org/2000/svg"
   xmlns="http://www.w3.org/2000/svg"
   viewBox="0 0 27.565866 8.4523869"
   height="8.4523869"
   width="27.565866"
   xml:space="preserve"
   id="svg2"
   version="1.1"><metadata
     id="metadata8"><rdf:RDF><cc:Work
         rdf:about=""><dc:format>image/svg+xml</dc:format><dc:type
           rdf:resource="http://purl.org/dc/dcmitype/StillImage" /></cc:Work></rdf:RDF></metadata><defs
     id="defs6"><clipPath
       id="clipPath18"
       clipPathUnits="userSpaceOnUse"><path
         id="path16"
         d="M 0,6.339 H 20.674 V 0 H 0 Z" /></clipPath></defs><g
     transform="matrix(1.3333333,0,0,-1.3333333,0,8.4523867)"
     id="g10"><g
       id="g12"><g
         clip-path="url(#clipPath18)"
         id="g14"><g
           transform="translate(5.8792,6.2282)"
           id="g20"><path
             id="path22"
             style="fill:#000000;fill-opacity:1;fill-rule:nonzero;stroke:none"
             d="m 0,0 -1.638,-4.187 -0.175,0.851 -0.586,2.822 c -0.102,0.388 -0.396,0.504 -0.76,0.518 h -2.699 l -0.021,-0.128 c 0.656,-0.159 1.243,-0.388 1.758,-0.673 L -2.632,-6.131 -0.86,-6.129 1.774,0 Z m 12.766,-3.96 -0.388,1.772 -0.114,0.53 -0.222,-0.587 -0.667,-1.715 z m 2.029,-2.179 h -1.553 l -0.204,0.92 -2.143,0.002 -0.354,-0.922 H 8.784 l 2.487,5.627 c 0.175,0.4 0.475,0.51 0.875,0.51 h 1.293 z M 7.5,-2.461 c -0.586,0.284 -0.943,0.474 -0.939,0.76 0,0.256 0.303,0.529 0.959,0.529 0.547,0.009 0.942,-0.111 1.252,-0.235 l 0.151,-0.072 0.226,1.332 C 8.817,-0.023 8.298,0.111 7.649,0.111 5.996,0.111 4.83,-0.722 4.821,-1.915 4.812,-2.797 5.653,-3.29 6.288,-3.583 6.938,-3.884 7.158,-4.075 7.154,-4.346 7.15,-4.757 6.634,-4.945 6.153,-4.945 c -0.669,0 -1.026,0.092 -1.575,0.322 L 4.362,-4.525 4.127,-5.9 c 0.392,-0.172 1.114,-0.321 1.865,-0.329 1.76,0 2.902,0.824 2.915,2.099 C 8.911,-3.431 8.465,-2.9 7.5,-2.461 M 2.451,0.004 H 4.125 L 3.078,-6.138 H 1.405 Z" /></g></g></g></g></svg>